<svg viewBox="0 0 1705 402.975" xmlns="http://www.w3.org/2000/svg" xmlns:xlink="http://www.w3.org/1999/xlink" width="1705.000000" height="402.975098" fill="none" customFrame="#000000">
	<defs>
		<radialGradient id="paint_radial_0" cx="0" cy="0" r="1" gradientUnits="userSpaceOnUse" gradientTransform="matrix(294.012,129.006,-366.719,835.77,758.488,138.994)">
			<stop stop-color="rgb(107,205,119)" offset="0.0104987025" stop-opacity="1" />
			<stop stop-color="rgb(111.972,238.809,237.332)" offset="0.67242223" stop-opacity="1" />
		</radialGradient>
		<linearGradient id="paint_linear_0" x1="1052.5" x2="1052.5" y1="38" y2="268" gradientUnits="userSpaceOnUse">
			<stop stop-color="rgb(0,168,255)" offset="0" stop-opacity="1" />
			<stop stop-color="rgb(107,205,119)" offset="1" stop-opacity="1" />
		</linearGradient>
		<clipPath id="clipPath_0">
			<rect width="400.000000" height="400.000000" x="0.000000" y="2.000000" fill="rgb(255,255,255)" />
		</clipPath>
		<g id="pixso_custom_effect_0">
			<effect visibility="visible" effectType="backgroundBlur" saturation="0" stdDeviation="4" />
		</g>
		<filter id="filter_0" width="294.888184" height="396.930908" x="56.899170" y="6.044189" filterUnits="userSpaceOnUse" customEffect="url(#pixso_custom_effect_0)" color-interpolation-filters="sRGB">
			<feFlood flood-opacity="0" result="BackgroundImageFix" />
			<feGaussianBlur stdDeviation="1.33333337" in="BackgroundImage" />
			<feComposite result="effect_backgroundBlur_1" in2="SourceAlpha" operator="in" />
			<feBlend result="shape" in="SourceGraphic" in2="effect_backgroundBlur_1" mode="normal" />
		</filter>
		<linearGradient id="paint_linear_1" x1="204.343201" x2="204.343201" y1="11.0444336" y2="397.974518" gradientUnits="userSpaceOnUse">
			<stop stop-color="rgb(112,238,238)" offset="0.24037756" stop-opacity="1" />
			<stop stop-color="rgb(106,200,102)" offset="1" stop-opacity="1" />
		</linearGradient>
		<radialGradient id="paint_radial_1" cx="0" cy="0" r="1" gradientUnits="userSpaceOnUse" gradientTransform="matrix(0,193.465,-142.444,0,204.343,204.509)">
			<stop stop-color="rgb(6,255,220)" offset="0.41772151" stop-opacity="1" />
			<stop stop-color="rgb(114,255,180)" offset="0.810126603" stop-opacity="0" />
		</radialGradient>
		<radialGradient id="paint_radial_2" cx="0" cy="0" r="1" gradientUnits="userSpaceOnUse" gradientTransform="matrix(0,194.164,-158,0,196,194.164)">
			<stop stop-color="rgb(0,168,255)" offset="0.329113901" stop-opacity="1" />
			<stop stop-color="rgb(0,168,255)" offset="0.827004194" stop-opacity="0" />
		</radialGradient>
	</defs>
	<rect id="Logo" width="1705.000000" height="400.000000" x="0.000000" y="2.000000" fill="rgb(255,255,255)" fill-opacity="0" />
	<path id="" d="M498.999 101.721Q501.257 110.51 504.126 124.365Q506.995 138.22 509.863 154.028Q512.732 169.775 515.601 185.767Q518.53 201.758 520.728 214.758Q529.272 201.514 539.648 185.767Q550.024 170.02 560.4 154.517Q570.776 139.014 580.359 125.159Q590.002 111.243 597.021 101.721L626.746 101.721Q624.731 120.764 621.985 142.249Q619.238 163.733 615.576 186.255Q611.975 208.777 607.947 231.421Q603.979 254.004 600.012 275L568.762 275Q575.232 244.727 581.213 212.866Q587.256 181.006 592.261 149.756Q587.988 155.737 582.495 164.282Q577.002 172.766 570.715 182.166Q564.49 191.504 557.959 201.514Q551.489 211.523 545.325 220.923Q539.221 230.261 533.972 238.257Q528.723 246.252 525 251.99L500.769 251.99Q499.487 243.75 497.229 230.261Q494.971 216.772 492.224 201.88Q489.478 186.987 486.853 172.888Q484.229 158.728 482.275 149.512Q472.021 180.762 463.11 212.866Q454.26 244.971 446.265 275L415.259 275Q421.24 253.516 427.954 230.505Q434.729 207.495 441.87 184.912Q449.011 162.268 455.969 141.028Q462.988 119.727 469.519 101.721L498.999 101.721ZM664.779 275L634.75 275L666 144.263L696.273 144.263L664.779 275ZM687.24 124.487Q680.526 124.487 675.521 120.52Q670.516 116.492 670.516 108.496Q670.516 99.2798 676.864 93.2983Q683.272 87.2559 691.512 87.2559Q698.226 87.2559 703.353 91.4062Q708.48 95.4956 708.48 103.491Q708.48 112.769 701.949 118.628Q695.479 124.487 687.24 124.487ZM733.529 149.756Q743.478 146.765 756.356 144.141Q769.234 141.516 784.493 141.516Q807.503 141.516 818.246 152.747Q828.988 163.977 828.988 183.02Q828.988 188.269 828.133 194.128Q827.279 199.988 825.997 206.274L809.518 275L779.244 275L794.747 209.509Q796.029 204.016 797.25 198.279Q798.47 192.48 798.775 187.231Q799.02 178.503 794.625 172.766Q790.23 167.029 777.474 167.029Q766.732 167.029 758.98 169.226L733.773 275L703.5 275L733.529 149.756ZM851.231 227.759Q851.231 210.974 856.602 195.349Q861.973 179.724 872.105 167.639Q882.237 155.493 896.458 148.291Q910.74 141.028 928.501 141.028Q947.483 141.028 957.981 150.793Q968.479 160.498 968.479 175.757Q968.479 191.504 960.728 201.27Q952.977 210.974 940.586 216.528Q928.257 222.021 912.632 224.036Q897.007 225.989 881.016 226.477Q880.772 227.026 880.772 227.515L880.772 230.017Q880.772 252.722 909.52 252.722Q926.487 252.722 943.516 245.764L946.019 270.239Q939.976 272.986 928.99 275.732Q918.003 278.479 904.026 278.479Q889.988 278.479 879.979 274.512Q870.03 270.483 863.621 263.525Q857.273 256.506 854.222 247.412Q851.231 238.257 851.231 227.759ZM923.985 165.747Q916.478 165.747 909.703 168.738Q902.989 171.729 897.74 176.978Q892.491 182.227 888.584 189.368Q884.739 196.509 883.03 204.749Q912.999 203.772 926.609 197.546Q940.22 191.26 940.22 178.748Q940.22 173.743 936.619 169.775Q933.018 165.747 923.985 165.747ZM1026.99 277.502Q1015.27 277.258 1007.09 274.512Q998.972 271.765 994.089 267.004Q989.268 262.244 987.131 255.774Q984.995 249.243 984.995 241.492Q984.995 233.496 986.887 224.646Q988.779 215.735 990.977 207.007L1020.03 85.9741L1051.52 81.0303Q1043.77 113.745 1036.02 146.155Q1028.27 178.503 1020.27 211.279Q1018.99 216.528 1017.47 221.655Q1016 226.721 1016 231.726Q1016 235.999 1016.12 239.661Q1016.25 243.262 1018.14 245.886Q1020.03 248.511 1023.75 250.281Q1027.48 251.99 1033.52 252.478L1026.99 277.502ZM1082.53 275L1052.5 275L1083.75 144.263L1114.02 144.263L1082.53 275ZM1104.99 124.487Q1098.28 124.487 1093.27 120.52Q1088.27 116.492 1088.27 108.496Q1088.27 99.2798 1094.61 93.2983Q1101.02 87.2559 1109.26 87.2559Q1115.98 87.2559 1121.1 91.4062Q1126.23 95.4956 1126.23 103.491Q1126.23 112.769 1119.7 118.628Q1113.23 124.487 1104.99 124.487ZM1206.76 141.272Q1218.23 141.272 1226.6 145.178Q1235.02 149.023 1240.51 155.798Q1246.01 162.512 1248.75 171.667Q1251.5 180.762 1251.5 191.26Q1251.5 208.472 1245.46 224.28Q1239.47 240.027 1228.37 252.051Q1217.26 264.014 1201.27 271.155Q1185.28 278.235 1165.26 278.235Q1162.27 278.235 1157.26 277.991Q1152.26 277.747 1146.21 276.709Q1140.23 275.732 1134.01 274.023Q1127.78 272.253 1122.47 269.507L1166.23 85.9741L1197.73 81.0303L1181.74 147.986Q1187.23 145.239 1193.45 143.286Q1199.74 141.272 1206.76 141.272ZM1169.22 252.722Q1180.76 252.722 1190.34 247.9Q1199.98 243.018 1206.88 234.778Q1213.78 226.477 1217.5 215.857Q1221.23 205.237 1221.23 193.762Q1221.23 188.025 1220.25 183.142Q1219.27 178.259 1216.77 174.658Q1214.27 170.996 1209.99 168.86Q1205.72 166.724 1199.25 166.724Q1193.76 166.724 1187.23 168.738Q1180.76 170.752 1175.27 175.024L1157.02 251.501Q1159.27 251.99 1162.14 252.356Q1165.01 252.722 1169.22 252.722ZM1302.28 253.76Q1314.24 253.76 1321.2 249.915Q1328.22 246.008 1328.22 238.013Q1328.22 231.482 1323.7 227.637Q1319.25 223.73 1308.02 218.481Q1301.98 215.735 1296.85 212.744Q1291.72 209.753 1288 205.786Q1284.27 201.758 1282.02 196.387Q1279.76 191.016 1279.76 183.508Q1279.76 163.977 1293.98 152.502Q1308.26 141.028 1335.24 141.028Q1347.75 141.028 1357.64 143.652Q1367.53 146.277 1372.47 149.023L1361.73 172.522Q1357.52 170.02 1349.52 167.639Q1341.53 165.259 1332.74 165.259Q1328.53 165.259 1324.38 165.991Q1320.22 166.724 1316.99 168.494Q1313.75 170.264 1311.62 173.376Q1309.48 176.489 1309.48 181.006Q1309.48 186.743 1314.12 190.405Q1318.76 194.006 1327.49 197.974Q1335.73 201.758 1341.46 205.298Q1347.26 208.777 1350.99 213.171Q1354.77 217.505 1356.48 222.876Q1358.25 228.247 1358.25 235.754Q1358.25 244.971 1354.47 252.905Q1350.74 260.779 1343.6 266.394Q1336.52 272.009 1326.02 275.244Q1315.52 278.479 1301.98 278.479Q1292.76 278.479 1285.37 277.197Q1277.99 275.977 1272.5 274.39Q1267 272.742 1263.22 271.033Q1259.49 269.263 1257.48 267.981L1268.22 244.238Q1269.99 245.276 1273.35 246.924Q1276.77 248.511 1281.1 250.037Q1285.5 251.501 1290.87 252.661Q1296.24 253.76 1302.28 253.76Z" fill="url(#paint_radial_0)" fill-rule="nonzero" />
	<path id="" d="M505.779 99.9792Q508.078 108.929 510.981 122.946Q513.867 136.886 516.751 152.778L522.489 184.521Q525.425 200.545 527.63 213.592L520.728 214.758L514.845 210.963Q523.408 197.692 533.803 181.915L554.569 150.644Q564.988 135.077 574.602 121.177Q584.307 107.172 591.387 97.5676L593.485 94.7212L634.525 94.7212L633.707 102.457Q631.684 121.578 628.928 143.136Q626.167 164.739 622.485 187.378Q618.878 209.943 614.839 232.647Q610.866 255.26 606.891 276.3L605.813 282L560.108 282L561.917 273.537Q568.368 243.349 574.334 211.575Q580.36 179.798 585.349 148.649L592.261 149.756L597.957 153.825Q593.784 159.667 588.383 168.068Q582.849 176.614 576.534 186.057Q570.333 195.358 563.822 205.339L551.191 224.742L539.828 242.092L528.788 258.99L494.774 258.99L493.852 253.066Q492.577 244.865 490.325 231.417Q488.076 217.986 485.34 203.149L479.97 174.163Q477.362 160.092 475.427 150.963L482.275 149.512L488.926 151.694Q478.723 182.79 469.855 214.738Q461.016 246.803 453.029 276.801L451.645 282L406.044 282L408.515 273.123Q414.508 251.597 421.234 228.545Q428.034 205.452 435.196 182.802Q442.347 160.125 449.317 138.849Q456.372 117.437 462.939 99.3344L464.612 94.7212L504.428 94.7212L505.779 99.9792ZM492.219 103.463L498.999 101.721L498.999 108.721L469.519 108.721L469.519 101.721L476.1 104.108Q469.604 122.016 462.621 143.207Q455.676 164.41 448.544 187.023Q441.424 209.539 434.674 232.466Q427.972 255.435 422.002 276.877L415.259 275L415.259 268L446.265 268L446.265 275L439.5 273.199Q447.504 243.139 456.365 210.994Q465.32 178.733 475.624 147.329L483.732 122.62L489.123 148.061Q491.095 157.364 493.736 171.613L499.108 200.61Q501.865 215.559 504.133 229.105Q506.398 242.634 507.686 250.914L500.769 251.99L500.769 244.99L525 244.99L525 251.99L519.14 248.161L528.116 234.422L539.458 217.104L552.096 197.689Q558.646 187.65 564.897 178.274Q571.155 168.918 576.607 160.497Q582.193 151.808 586.565 145.687L599.173 150.863Q594.152 182.211 588.093 214.158Q582.096 246.105 575.608 276.463L568.762 275L568.762 268L600.012 268L600.012 275L593.134 273.7Q597.092 252.751 601.055 230.195Q605.073 207.611 608.667 185.131Q612.31 162.728 615.041 141.361Q617.778 119.953 619.784 100.985L626.746 101.721L626.746 108.721L597.021 108.721L597.021 101.721L602.656 105.875Q595.698 115.314 586.116 129.141Q576.563 142.953 566.232 158.389L545.494 189.618Q535.136 205.338 526.61 218.553L516.831 233.71L513.825 215.925Q511.636 202.972 508.712 187.012L502.976 155.278Q500.123 139.555 497.271 125.784Q494.436 112.092 492.219 103.463ZM664.779 282L625.879 282L660.476 137.263L705.159 137.263L670.293 282L664.779 282ZM664.779 268L664.779 275L657.974 273.361L689.468 142.623L696.273 144.263L696.273 151.263L666 151.263L666 144.263L672.808 145.89L641.558 276.627L634.75 275L634.75 268L664.779 268ZM687.24 131.487Q682.73 131.487 678.708 130.126Q674.628 128.744 671.173 126.006Q669.193 124.412 667.725 122.45Q666.265 120.497 665.305 118.19Q663.516 113.893 663.516 108.496Q663.516 102.485 665.644 97.3907Q667.805 92.2164 672.063 88.2038Q676.205 84.2983 681.061 82.2954Q686.005 80.2559 691.512 80.2559Q696.06 80.2559 700.145 81.6875Q704.25 83.1266 707.757 85.9655Q709.682 87.5007 711.172 89.4629Q712.661 91.4244 713.642 93.7383Q715.48 98.07 715.48 103.491Q715.48 109.576 713.275 114.687Q711.033 119.882 706.624 123.838Q702.478 127.594 697.627 129.526Q692.703 131.487 687.24 131.487ZM687.24 117.487Q690.017 117.487 692.447 116.519Q694.951 115.522 697.275 113.418Q699.396 111.514 700.42 109.141Q701.48 106.684 701.48 103.491Q701.48 100.917 700.754 99.206Q700.454 98.4987 700.02 97.9272Q699.587 97.3565 698.949 96.847Q697.329 95.5355 695.514 94.8994Q693.678 94.2559 691.512 94.2559Q688.779 94.2559 686.4 95.2375Q683.931 96.2559 681.664 98.3929Q679.575 100.362 678.562 102.786Q677.516 105.291 677.516 108.496Q677.516 111.095 678.23 112.81Q678.521 113.509 678.938 114.066Q679.347 114.614 679.869 115.034Q681.419 116.263 683.198 116.865Q685.036 117.487 687.24 117.487ZM731.514 143.052Q741.767 139.97 754.958 137.282Q768.528 134.516 784.493 134.516Q797.132 134.516 806.646 137.682Q816.733 141.038 823.304 147.908Q829.712 154.607 832.899 163.589Q835.988 172.293 835.988 183.02Q835.988 188.777 835.06 195.139Q834.177 201.193 832.856 207.673L832.832 207.79L815.037 282L770.394 282L787.935 207.897Q789.196 202.492 790.403 196.822Q791.512 191.551 791.787 186.825L798.775 187.231L791.778 187.036Q791.87 183.756 791.131 181.182Q790.459 178.839 789.068 177.023Q788.174 175.856 785.919 175.102Q784.405 174.595 782.397 174.325Q780.195 174.029 777.474 174.029Q767.705 174.029 760.89 175.961L758.98 169.226L765.79 170.849L739.301 282L694.623 282L727.66 144.211L731.514 143.052ZM735.544 156.46L733.529 149.756L740.336 151.388L710.307 276.632L703.5 275L703.5 268L733.773 268L733.773 275L726.964 273.377L753.123 163.611L757.071 162.491Q765.759 160.029 777.474 160.029Q784.992 160.029 790.361 161.825Q793.383 162.836 795.775 164.423Q798.372 166.146 800.182 168.51Q803.185 172.43 804.588 177.321Q805.925 181.979 805.773 187.427L805.77 187.533L805.764 187.638Q805.428 193.41 804.096 199.736Q802.861 205.54 801.559 211.122L786.056 276.612L779.244 275L779.244 268L809.518 268L809.518 275L802.711 273.368L819.19 204.642L825.997 206.274L819.138 204.876Q820.38 198.783 821.207 193.118Q821.988 187.761 821.988 183.02Q821.988 174.704 819.705 168.271Q817.521 162.116 813.187 157.585Q809.016 153.225 802.226 150.966Q794.864 148.516 784.493 148.516Q769.94 148.516 757.754 151Q745.188 153.561 735.544 156.46ZM844.231 227.759Q844.231 209.804 849.982 193.074Q855.775 176.221 866.741 163.142Q877.786 149.901 893.295 142.046Q909.062 134.028 928.501 134.028Q939.122 134.028 947.564 136.824Q956.383 139.746 962.749 145.668Q969.095 151.535 972.308 159.173Q975.479 166.715 975.479 175.757Q975.479 184.67 973.239 192.043Q970.914 199.696 966.211 205.621Q961.776 211.174 956.044 215.516Q950.373 219.813 943.45 222.916Q930.169 228.833 913.527 230.978Q897.549 232.975 881.23 233.474L881.016 226.477L887.413 229.32Q887.558 228.994 887.647 228.614Q887.772 228.083 887.772 227.515L887.772 230.017Q887.772 234.277 889.018 237.229Q889.574 238.546 890.389 239.619Q891.198 240.685 892.297 241.553Q894.746 243.486 898.725 244.534Q903.239 245.722 909.52 245.722Q925.112 245.722 940.868 239.284L949.528 235.746L953.494 274.531L948.915 276.612Q942.292 279.622 930.688 282.523Q918.865 285.479 904.026 285.479Q888.652 285.479 877.399 281.019Q865.946 276.382 858.472 268.268Q851.102 260.118 847.585 249.639Q844.231 239.371 844.231 227.759ZM858.231 227.759Q858.231 237.143 860.858 245.185Q863.445 252.895 868.77 258.783Q874.114 264.585 882.558 268.004Q891.325 271.479 904.026 271.479Q917.142 271.479 927.292 268.941Q937.66 266.349 943.122 263.867L946.019 270.239L939.055 270.951L936.552 246.476L943.516 245.764L946.164 252.244Q927.862 259.722 909.52 259.722Q901.427 259.722 895.16 258.072Q888.359 256.282 883.62 252.539Q881.126 250.569 879.241 248.087Q877.36 245.612 876.12 242.672Q873.772 237.11 873.772 230.017L873.772 227.515Q873.772 225.541 874.619 223.634L876.406 219.615L880.802 219.48Q896.465 219.002 911.737 217.093Q926.345 215.21 937.723 210.141Q948.566 205.28 955.245 196.918Q958.293 193.078 959.844 187.974Q961.479 182.59 961.479 175.757Q961.479 169.539 959.402 164.6Q957.366 159.757 953.214 155.919Q949.082 152.076 943.161 150.114Q936.863 148.028 928.501 148.028Q912.418 148.028 899.621 154.536Q886.687 161.086 877.469 172.136Q868.171 183.227 863.222 197.625Q858.231 212.144 858.231 227.759ZM923.985 172.747Q917.954 172.747 912.53 175.142Q907.022 177.595 902.689 181.927Q898.15 186.467 894.726 192.727Q891.386 198.929 889.884 206.17L883.03 204.749L882.802 197.752Q897.327 197.279 907.768 195.553Q917.741 193.905 923.698 191.181Q928.818 188.816 931.148 185.598Q932.175 184.179 932.685 182.538Q933.22 180.813 933.22 178.748Q933.22 177.597 932.824 176.609Q932.392 175.533 931.436 174.48Q931.191 174.207 930.837 173.991Q930.314 173.672 929.534 173.423Q927.413 172.747 923.985 172.747ZM923.985 158.747Q936.15 158.747 941.802 165.071Q944.448 167.985 945.816 171.395Q947.22 174.893 947.22 178.748Q947.22 182.938 946.055 186.691Q944.863 190.528 942.487 193.809Q938.011 199.991 929.521 203.912Q921.867 207.413 910.051 209.366Q898.702 211.242 883.258 211.745L874.37 212.034L876.176 203.327Q878.092 194.088 882.443 186.008Q886.831 177.987 892.79 172.028Q898.956 165.862 906.876 162.334Q915.001 158.747 923.985 158.747ZM1026.84 284.501Q1014.05 284.234 1004.86 281.148Q995.223 277.887 989.203 272.016Q986.167 269.019 983.988 265.503Q981.812 261.991 980.484 257.969Q977.995 250.359 977.995 241.492Q977.995 232.756 980.042 223.183Q981.96 214.151 984.188 205.298L1014.32 79.7852L1060.75 72.4961L1042.83 147.776L1027.08 212.924Q1025.75 218.359 1024.18 223.652Q1023 227.713 1023 231.726Q1023 235.883 1023.12 239.427Q1023.15 240.242 1023.35 240.863Q1023.51 241.373 1023.82 241.793Q1024.18 242.299 1024.8 242.785Q1025.6 243.406 1026.76 243.959Q1027.87 244.467 1029.59 244.855Q1031.55 245.296 1034.08 245.501L1042.4 246.173L1032.37 284.616L1026.84 284.501ZM1027.13 270.504L1026.99 277.502L1020.21 275.735L1026.74 250.71L1033.52 252.478L1032.95 259.455Q1029.44 259.171 1026.52 258.514Q1023.36 257.803 1020.75 256.603Q1015.4 254.061 1012.46 249.98Q1010.87 247.775 1010.03 245.172Q1009.22 242.681 1009.13 239.894Q1009 236.115 1009 231.726Q1009 225.729 1010.76 219.658Q1012.23 214.698 1013.47 209.634L1029.21 144.534L1044.71 79.4092L1051.52 81.0303L1052.61 87.9456L1021.11 92.8894L1020.03 85.9741L1026.84 87.608L997.765 208.716Q995.6 217.316 993.733 226.109Q991.995 234.236 991.995 241.492Q991.995 248.127 993.778 253.579Q994.587 256.027 995.889 258.13Q997.19 260.229 998.976 261.992Q1002.72 265.644 1009.32 267.876Q1016.48 270.282 1027.13 270.504ZM1082.53 282L1043.63 282L1078.23 137.263L1122.91 137.263L1088.04 282L1082.53 282ZM1082.53 268L1082.53 275L1075.72 273.361L1107.22 142.623L1114.02 144.263L1114.02 151.263L1083.75 151.263L1083.75 144.263L1090.56 145.89L1059.31 276.627L1052.5 275L1052.5 268L1082.53 268ZM1104.99 131.487Q1100.48 131.487 1096.46 130.126Q1092.38 128.744 1088.92 126.006Q1086.94 124.412 1085.48 122.45Q1084.02 120.497 1083.05 118.19Q1081.27 113.893 1081.27 108.496Q1081.27 102.485 1083.39 97.3907Q1085.55 92.2164 1089.81 88.2038Q1093.96 84.2983 1098.81 82.2954Q1103.76 80.2559 1109.26 80.2559Q1113.81 80.2559 1117.89 81.6875Q1122 83.1266 1125.51 85.9655Q1127.43 87.5008 1128.92 89.4629Q1130.41 91.4244 1131.39 93.7383Q1133.23 98.07 1133.23 103.491Q1133.23 109.576 1131.02 114.687Q1128.78 119.882 1124.37 123.838Q1120.23 127.593 1115.38 129.526Q1110.45 131.487 1104.99 131.487ZM1104.99 117.487Q1107.77 117.487 1110.2 116.519Q1112.7 115.522 1115.02 113.418Q1117.15 111.514 1118.17 109.141Q1119.23 106.684 1119.23 103.491Q1119.23 100.917 1118.5 99.206Q1118.2 98.4987 1117.77 97.9272Q1117.34 97.3564 1116.7 96.847Q1115.08 95.5355 1113.26 94.8994Q1111.43 94.2559 1109.26 94.2559Q1106.53 94.2559 1104.15 95.2375Q1101.68 96.2559 1099.41 98.3929Q1097.32 100.362 1096.31 102.786Q1095.27 105.291 1095.27 108.496Q1095.27 111.095 1095.98 112.81Q1096.27 113.509 1096.69 114.066Q1097.1 114.614 1097.62 115.034Q1099.17 116.263 1100.95 116.865Q1102.79 117.487 1104.99 117.487ZM1206.76 134.272Q1219.79 134.272 1229.56 138.836Q1239.42 143.338 1245.95 151.39Q1252.31 159.162 1255.46 169.656Q1258.5 179.728 1258.5 191.26Q1258.5 209.764 1251.99 226.779Q1245.54 243.781 1233.51 256.801Q1221.42 269.823 1204.12 277.546Q1186.76 285.235 1165.26 285.235Q1162.09 285.235 1156.92 284.982Q1151.49 284.718 1145.03 283.608Q1138.74 282.581 1132.15 280.774Q1125.19 278.794 1119.25 275.724L1114.39 273.209L1160.51 79.7864L1206.96 72.4948L1188.54 149.612L1181.74 147.986L1178.6 141.725Q1184.6 138.728 1191.36 136.607Q1198.65 134.272 1206.76 134.272ZM1206.76 148.272Q1200.83 148.272 1195.55 149.965Q1189.86 151.751 1184.87 154.247L1171.44 160.96L1190.92 79.4042L1197.73 81.0303L1198.81 87.9456L1167.32 92.8894L1166.23 85.9741L1173.04 87.5977L1129.28 271.13L1122.47 269.507L1125.69 263.289Q1130.37 265.713 1135.86 267.273Q1141.73 268.884 1147.4 269.81Q1153.02 270.776 1157.6 270.999Q1162.44 271.235 1165.26 271.235Q1183.8 271.235 1198.41 264.763Q1213.1 258.204 1223.22 247.301Q1233.41 236.273 1238.92 221.78Q1244.5 207.179 1244.5 191.26Q1244.5 181.796 1242.05 173.679Q1239.7 165.863 1235.07 160.207Q1230.62 154.709 1223.63 151.52Q1216.68 148.272 1206.76 148.272ZM1169.22 245.722Q1179.1 245.722 1187.19 241.647Q1195.54 237.422 1201.51 230.285Q1207.59 222.973 1210.9 213.541Q1214.23 204.045 1214.23 193.762Q1214.23 188.718 1213.38 184.515Q1212.69 181.059 1211.02 178.653Q1210.26 177.542 1209.27 176.696Q1208.23 175.805 1206.86 175.121Q1205.57 174.474 1203.81 174.123Q1201.8 173.724 1199.25 173.724Q1194.81 173.724 1189.29 175.427Q1184.05 177.058 1179.56 180.55L1175.27 175.024L1182.07 176.649L1163.82 253.126L1157.02 251.501L1158.5 244.66Q1160.46 245.084 1163.03 245.412Q1165.46 245.722 1169.22 245.722ZM1169.22 259.722Q1164.57 259.722 1161.26 259.3Q1158.09 258.895 1155.54 258.343L1148.55 256.832L1169.03 171.008L1170.97 169.499Q1177.46 164.446 1185.17 162.049Q1192.7 159.724 1199.25 159.724Q1207.37 159.724 1213.13 162.599Q1216.03 164.051 1218.38 166.059Q1220.77 168.112 1222.52 170.664Q1225.85 175.46 1227.11 181.769Q1228.23 187.332 1228.23 193.762Q1228.23 206.428 1224.11 218.173Q1219.97 229.982 1212.25 239.271Q1204.43 248.613 1193.49 254.153Q1182.42 259.722 1169.22 259.722ZM1302.28 246.76Q1307.56 246.76 1311.6 245.939Q1315.28 245.191 1317.82 243.788Q1319.65 242.769 1320.44 241.43Q1321.22 240.1 1321.22 238.013Q1321.22 236.205 1320.67 234.947Q1320.19 233.839 1319.17 232.967Q1317.37 231.39 1314.03 229.44Q1310.38 227.313 1305.05 224.823Q1298.75 221.96 1293.32 218.791Q1287.31 215.287 1282.89 210.576Q1278.3 205.605 1275.56 199.1Q1272.76 192.427 1272.76 183.508Q1272.76 172.214 1276.95 163.073Q1281.19 153.825 1289.58 147.055Q1305.8 134.028 1335.24 134.028Q1348.66 134.028 1359.44 136.887Q1364.68 138.278 1368.67 139.726Q1372.91 141.259 1375.87 142.904L1381.53 146.048L1364.85 182.522L1358.15 178.54Q1356.52 177.567 1353.97 176.549Q1351.22 175.447 1347.52 174.348Q1340.51 172.259 1332.74 172.259Q1329.14 172.259 1325.59 172.885Q1322.57 173.417 1320.35 174.634Q1319.46 175.119 1318.74 175.779Q1318 176.452 1317.39 177.337Q1316.48 178.66 1316.48 181.006Q1316.48 182.241 1316.92 183.127Q1317.38 184.059 1318.46 184.911Q1320.33 186.365 1323.23 188.007Q1326.3 189.746 1330.38 191.601Q1339.04 195.576 1345.14 199.341Q1351.86 203.37 1356.33 208.646Q1361 213.996 1363.15 220.754Q1365.25 227.123 1365.25 235.754Q1365.25 246.555 1360.78 255.919Q1358.58 260.586 1355.34 264.605Q1352.12 268.597 1347.93 271.897Q1339.84 278.311 1328.08 281.934Q1316.58 285.479 1301.98 285.479Q1292.16 285.479 1284.18 284.094Q1276.44 282.816 1270.55 281.115Q1264.54 279.313 1260.34 277.412Q1256.1 275.4 1253.72 273.887L1248.6 270.627L1265.05 234.265L1271.76 238.199Q1273.31 239.106 1276.43 240.64Q1279.41 242.02 1283.43 243.434Q1287.35 244.74 1292.34 245.819Q1296.95 246.76 1302.28 246.76ZM1302.28 260.76Q1295.53 260.76 1289.39 259.503Q1283.64 258.263 1278.78 256.639Q1274.13 255.002 1270.26 253.208Q1266.68 251.446 1264.68 250.277L1268.22 244.238L1274.6 247.124L1263.86 270.866L1257.48 267.981L1261.24 262.075Q1262.89 263.126 1266.1 264.653Q1269.46 266.171 1274.44 267.665Q1279.54 269.137 1286.57 270.3Q1293.36 271.479 1301.98 271.479Q1314.47 271.479 1323.96 268.555Q1333.2 265.707 1339.27 260.891Q1345.12 256.296 1348.15 249.892Q1351.25 243.387 1351.25 235.754Q1351.25 229.371 1349.81 224.998Q1348.54 221.014 1345.65 217.696Q1342.67 214.184 1337.79 211.255Q1332.42 207.94 1324.59 204.346Q1315.12 200.039 1309.78 195.899Q1306.22 193.089 1304.36 189.322Q1302.48 185.508 1302.48 181.006Q1302.48 177.786 1303.28 174.953Q1304.12 171.928 1305.85 169.416Q1307.38 167.188 1309.32 165.42Q1311.28 163.638 1313.63 162.353Q1317.87 160.03 1323.16 159.098Q1327.91 158.259 1332.74 158.259Q1342.55 158.259 1351.52 160.93Q1355.82 162.211 1359.17 163.551Q1362.73 164.974 1365.3 166.504L1361.73 172.522L1355.36 169.612L1366.1 146.113L1372.47 149.023L1369.07 155.143Q1367.09 154.041 1363.91 152.889Q1360.49 151.651 1355.84 150.418Q1346.84 148.028 1335.24 148.028Q1322.71 148.028 1313.31 150.641Q1304.38 153.124 1298.38 157.95Q1292.55 162.654 1289.68 168.91Q1286.76 175.271 1286.76 183.508Q1286.76 189.604 1288.47 193.674Q1290.25 197.91 1293.1 200.996Q1296.13 204.22 1300.38 206.698Q1305.2 209.509 1310.98 212.14Q1316.89 214.9 1321.08 217.349Q1325.58 219.977 1328.24 222.307Q1331.73 225.28 1333.51 229.359Q1335.22 233.29 1335.22 238.013Q1335.22 240.879 1334.57 243.463Q1333.89 246.185 1332.49 248.542Q1331.11 250.896 1329.06 252.816Q1327.11 254.636 1324.59 256.041Q1320.17 258.483 1314.39 259.658Q1308.97 260.76 1302.28 260.76Z" fill="url(#paint_linear_0)" fill-rule="nonzero" />
	<g id="minelibs" customFrame="url(#clipPath_0)">
		<rect id="minelibs" width="400.000000" height="400.000000" x="0.000000" y="2.000000" fill="rgb(255,255,255)" fill-opacity="0" />
		<g filter="url(#filter_0)">
			<path id="minelibs" d="M178.758 11.416L73.6087 35.0583C66.7631 36.5974 61.8992 42.6764 61.8992 49.6929L61.8992 142.837C61.8992 149.509 66.3065 155.379 72.7138 157.241L177.863 187.794C187.46 190.583 197.049 183.384 197.049 173.39L197.049 26.0506C197.049 16.4391 188.136 9.30754 178.758 11.416ZM329.32 223.029L215.331 197.468C205.955 195.366 197.049 202.497 197.049 212.105L197.049 327.319C197.049 333.156 200.435 338.463 205.728 340.923L325.466 396.558C335.643 401.286 347.219 393.575 346.775 382.361L341.026 237.072C340.757 230.279 335.953 224.516 329.32 223.029Z" fill="url(#paint_linear_1)" fill-rule="evenodd" />
			<path id="minelibs" d="M179.855 16.2942L74.7055 39.9365Q73.0154 40.3165 71.561 41.235Q70.1428 42.1308 69.091 43.4454Q68.0391 44.76 67.4763 46.3402Q66.8992 47.9606 66.8992 49.6929L66.8992 142.837Q66.8992 144.486 67.4244 146.039Q67.9376 147.556 68.9022 148.841Q69.8669 150.126 71.1808 151.042Q72.5254 151.98 74.1089 152.44L179.258 182.993Q181.608 183.675 183.952 183.218Q185.064 183.001 186.108 182.534Q187.142 182.07 188.053 181.387Q188.963 180.703 189.696 179.839Q190.436 178.968 190.955 177.96Q192.049 175.837 192.049 173.39L192.049 26.0506Q192.049 23.6951 191.027 21.6279Q190.54 20.6434 189.845 19.7833Q189.156 18.9303 188.296 18.2424Q187.436 17.5546 186.453 17.069Q185.461 16.5795 184.394 16.3208Q182.153 15.7775 179.855 16.2942ZM177.661 6.5378Q179.959 6.02106 182.289 6.04553Q184.552 6.0693 186.75 6.60228Q188.894 7.12208 190.88 8.10219Q192.836 9.06824 194.544 10.4342Q196.251 11.8002 197.623 13.4974Q199.014 15.2194 199.992 17.1973Q200.994 19.2254 201.514 21.4277Q202.049 23.695 202.049 26.0506L202.049 173.39Q202.049 175.836 201.475 178.181Q200.918 180.456 199.846 182.538Q198.802 184.565 197.321 186.31Q195.863 188.028 194.057 189.384Q192.251 190.74 190.194 191.661Q188.105 192.596 185.868 193.033Q183.569 193.481 181.229 193.381Q178.817 193.278 176.468 192.596L71.3186 162.043Q68.1553 161.123 65.461 159.245Q62.8323 157.412 60.9053 154.845Q58.9782 152.278 57.9515 149.243Q56.8992 146.131 56.8992 142.837L56.8992 49.6929Q56.8992 46.233 58.0559 42.985Q59.182 39.8233 61.2827 37.1978Q63.3834 34.5723 66.2211 32.7801Q69.1362 30.939 72.5118 30.18L177.661 6.5378L177.661 6.5378ZM328.226 227.907L214.237 202.347Q211.939 201.832 209.699 202.376Q208.632 202.635 207.641 203.125Q206.658 203.611 205.799 204.298Q204.94 204.986 204.251 205.839Q203.556 206.699 203.07 207.683Q202.049 209.75 202.049 212.105L202.049 327.319Q202.049 328.765 202.456 330.147Q202.856 331.504 203.618 332.698Q204.381 333.893 205.442 334.827Q206.524 335.779 207.835 336.388L327.573 392.023Q328.837 392.611 330.162 392.836Q331.419 393.051 332.689 392.933Q333.927 392.818 335.112 392.393Q336.286 391.973 337.331 391.277Q338.376 390.581 339.216 389.659Q340.064 388.729 340.648 387.631Q341.245 386.505 341.532 385.261Q341.834 383.952 341.779 382.559L336.03 237.27Q335.964 235.592 335.358 234.036Q334.766 232.518 333.719 231.262Q332.672 230.006 331.285 229.151Q329.865 228.275 328.226 227.907ZM330.414 218.15Q333.687 218.884 336.534 220.639Q339.309 222.351 341.4 224.859Q343.491 227.368 344.675 230.406Q345.889 233.522 346.022 236.874L351.771 382.164Q351.879 384.894 351.276 387.508Q350.694 390.033 349.48 392.32Q348.305 394.534 346.606 396.397Q344.94 398.224 342.875 399.599Q340.811 400.974 338.483 401.808Q336.11 402.658 333.614 402.89Q331.036 403.13 328.482 402.694Q325.837 402.244 323.359 401.092L203.621 345.457Q201 344.239 198.835 342.334Q196.711 340.464 195.188 338.077Q193.665 335.69 192.865 332.976Q192.049 330.209 192.049 327.319L192.049 212.105Q192.049 209.75 192.583 207.484Q193.102 205.282 194.104 203.254Q195.081 201.277 196.472 199.555Q197.843 197.858 199.549 196.492Q201.255 195.126 203.211 194.16Q205.196 193.179 207.339 192.658Q209.536 192.125 211.798 192.1Q214.127 192.074 216.425 192.589L330.414 218.15Z" fill="url(#paint_radial_1)" fill-rule="nonzero" />
		</g>
		<path id="minelibs" d="M249.72 0L314 0C336.091 0 354 17.9086 354 40L354 165.754C354 191.128 330.678 210.09 305.837 204.912L241.557 191.513C223.011 187.647 209.72 171.3 209.72 152.355L209.72 40C209.72 17.9086 227.629 0 249.72 0ZM314 9L249.72 9Q247.232 9 244.805 9.386Q244.131 9.49311 243.463 9.62994Q241.951 9.93923 240.486 10.3958Q239.049 10.8434 237.656 11.4324Q236.542 11.9038 235.471 12.4591L235.465 12.462Q233.882 13.2836 232.394 14.289Q231.283 15.0395 230.244 15.8796Q228.967 16.9121 227.8 18.0797Q226.633 19.2467 225.6 20.5229L225.6 20.5233L225.598 20.5258Q224.759 21.5637 224.009 22.6739Q223.003 24.1622 222.182 25.7458L222.181 25.7469Q221.625 26.8197 221.152 27.9362Q220.564 29.3281 220.116 30.7642L220.116 30.7656Q219.659 32.2313 219.35 33.7429Q219.213 34.4121 219.106 35.0861Q218.72 37.5124 218.72 40L218.72 152.355Q218.72 154.324 218.965 156.262L218.965 156.266Q219.06 157.013 219.191 157.756Q219.423 159.072 219.766 160.358L219.767 160.361Q220.105 161.629 220.552 162.868Q220.933 163.922 221.387 164.943Q221.995 166.309 222.735 167.616Q223.328 168.664 223.999 169.661L224 169.662Q224.781 170.822 225.667 171.911Q226.551 172.998 227.524 173.997L227.525 173.998Q228.366 174.861 229.273 175.658Q230.401 176.649 231.613 177.522Q232.521 178.175 233.476 178.763Q234.602 179.456 235.778 180.048L235.78 180.049Q236.965 180.645 238.202 181.139Q238.908 181.421 239.625 181.667L239.627 181.668L239.629 181.669Q241.472 182.302 243.394 182.702L307.674 196.102Q310.7 196.733 313.734 196.767Q314.278 196.773 314.822 196.76Q316.579 196.717 318.307 196.476L318.311 196.476Q319.979 196.243 321.622 195.825Q322.847 195.513 324.038 195.103L324.043 195.101L324.045 195.101Q326.036 194.415 327.931 193.457Q329.234 192.798 330.465 192.024L330.468 192.022Q332.074 191.012 333.556 189.807Q335.042 188.599 336.36 187.23Q337.367 186.185 338.277 185.045Q339.6 183.387 340.676 181.581L340.678 181.579L340.68 181.575Q341.326 180.49 341.883 179.352Q342.628 177.827 343.197 176.24L343.198 176.238L343.198 176.236Q343.786 174.595 344.185 172.886Q344.309 172.359 344.413 171.828Q345 168.849 345 165.754L345 40Q345 37.512 344.614 35.0853Q344.507 34.4117 344.37 33.7429Q344.061 32.2347 343.606 30.7721Q343.158 29.332 342.568 27.9362Q342.096 26.8205 341.54 25.7486L341.537 25.7431Q340.716 24.1609 339.711 22.6739Q338.96 21.5623 338.12 20.523L338.117 20.5197L338.114 20.5163Q337.084 19.2437 335.92 18.0797Q334.754 16.9131 333.478 15.8814L333.477 15.8808Q332.438 15.0401 331.326 14.289Q329.839 13.2842 328.256 12.4629L328.255 12.4621Q327.181 11.905 326.064 11.4324Q324.672 10.8436 323.235 10.3962L323.228 10.3938Q321.765 9.93859 320.257 9.62995Q319.602 9.49597 318.943 9.39048L318.914 9.38588Q316.488 9 314 9ZM142.28 388.329L78 388.329C55.9086 388.329 38 370.42 38 348.329L38 216.751C38 190.422 62.9977 171.275 88.4181 178.132L152.698 195.472C170.153 200.181 182.28 216.013 182.28 234.092L182.28 348.329C182.28 370.42 164.371 388.329 142.28 388.329ZM78 379.329L142.28 379.329Q144.768 379.329 147.195 378.943Q147.869 378.836 148.537 378.699Q150.049 378.39 151.514 377.933L151.518 377.932Q152.953 377.485 154.344 376.896Q155.461 376.424 156.535 375.867L156.537 375.866Q158.119 375.045 159.606 374.04Q160.717 373.289 161.756 372.449L161.757 372.448Q163.033 371.416 164.2 370.249Q165.368 369.082 166.4 367.805L166.404 367.8Q167.242 366.763 167.991 365.655Q168.997 364.167 169.818 362.583L169.823 362.574Q170.377 361.505 170.848 360.393Q171.436 359.003 171.882 357.569L171.884 357.565Q172.341 356.098 172.65 354.586Q172.784 353.93 172.89 353.269L172.894 353.243Q173.28 350.816 173.28 348.329L173.28 234.092Q173.28 231.242 172.774 228.485L172.774 228.484Q172.358 226.22 171.602 224.019Q171.249 222.993 170.827 221.997Q170.271 220.688 169.595 219.429Q169.041 218.399 168.414 217.417Q167.7 216.298 166.89 215.241Q166.08 214.184 165.186 213.203L165.182 213.198Q164.398 212.339 163.551 211.539Q162.516 210.562 161.401 209.687Q160.545 209.016 159.642 208.406Q157.714 207.102 155.636 206.111L155.635 206.11Q153.105 204.904 150.354 204.162L86.074 186.821Q82.9045 185.966 79.6962 185.781Q79.2078 185.752 78.7186 185.74Q76.9047 185.692 75.1106 185.859L75.1097 185.859Q73.378 186.019 71.6647 186.379Q70.412 186.642 69.1898 187.007Q67.084 187.635 65.0685 188.566Q63.7212 189.188 62.4444 189.932L62.4416 189.933Q60.7322 190.929 59.1492 192.142Q57.5665 193.354 56.1604 194.745L56.1589 194.746Q55.1079 195.786 54.1554 196.925Q52.7311 198.629 51.5755 200.499L51.5752 200.5Q50.9053 201.584 50.3257 202.724Q49.534 204.281 48.9288 205.908L48.928 205.91L48.9278 205.91Q48.2987 207.602 47.8713 209.368Q47.7561 209.844 47.6561 210.324Q47 213.469 47 216.751L47 348.329Q47 350.817 47.3859 353.243Q47.4931 353.917 47.6299 354.586Q47.9386 356.094 48.3938 357.557Q48.8421 358.997 49.4324 360.393Q49.9052 361.51 50.4625 362.584L50.4632 362.586L50.4658 362.591Q51.2859 364.17 52.289 365.655Q53.0412 366.768 53.8831 367.809Q54.9141 369.083 56.0797 370.249Q57.2463 371.416 58.5219 372.447Q59.5616 373.288 60.6739 374.04Q62.1608 375.044 63.7428 375.865L63.7453 375.867Q64.8188 376.424 65.9362 376.896Q67.3283 377.485 68.7645 377.933L68.7655 377.933Q70.2313 378.389 71.7429 378.699Q72.4119 378.836 73.0857 378.943L73.0864 378.943Q75.5125 379.329 78 379.329Z" fill="url(#paint_radial_2)" fill-rule="evenodd" />
	</g>
</svg>
