<?xml version="1.0" standalone="no"?><!DOCTYPE svg PUBLIC "-//W3C//DTD SVG 1.1//EN" "http://www.w3.org/Graphics/SVG/1.1/DTD/svg11.dtd"><svg t="1755697041907" class="icon" viewBox="0 0 1024 1024" version="1.1" xmlns="http://www.w3.org/2000/svg" p-id="15832" xmlns:xlink="http://www.w3.org/1999/xlink" width="200" height="200"><path d="M716.728327 866.217378V663.076092c0-28.310769-23.959204-48.379162-52.218778-48.635136-27.79882-0.255974-50.170983-12.69633-50.170983-40.59754l51.194881-40.546346h102.389761a51.194881 51.194881 0 0 0 51.19488-51.19488v-102.389761a51.194881 51.194881 0 0 0-51.19488-51.194881h-102.389761a51.194881 51.194881 0 0 0-51.194881 51.194881v81.09269l-51.19488 72.491951H460.753925L409.559044 460.805119V379.712429a51.194881 51.194881 0 0 0-51.19488-51.194881H255.974403a51.194881 51.194881 0 0 0-51.194881 51.194881v102.389761c0 28.157184 23.037696 51.194881 51.194881 51.19488h102.389761l51.19488 40.546346c0 29.385861-24.675932 47.20168-54.420158 45.870613a45.717028 45.717028 0 0 0-47.969603 45.870613v200.632736C167.458454 785.124688 79.556844 624.167983 107.611639 446.009799c28.157184-178.670133 177.646235-320.838316 357.442656-340.855514C711.762424 77.509049 921.507849 270.769723 921.507849 512c0 151.280872-82.577342 283.210079-204.779522 354.217378m-307.169283 41.928607v-37.781821a51.194881 51.194881 0 0 1 51.194881-51.194881h102.389761a51.194881 51.194881 0 0 1 51.19488 51.194881v37.781821a407.152885 407.152885 0 0 1-102.389761 13.413059 407.152885 407.152885 0 0 1-102.389761-13.413059M511.948805 0.051195C229.19948 0.10239 0 229.353065 0 512.051195c0 282.749325 229.19948 511.948805 511.948805 511.948805s511.948805-229.19948 511.948805-511.948805c0-282.646935-229.19948-511.948805-511.948805-511.948805" fill="#000000" p-id="15833"></path></svg>