<svg viewBox="0 0 400 402.975" xmlns="http://www.w3.org/2000/svg" xmlns:xlink="http://www.w3.org/1999/xlink" width="400.000000" height="402.974945" fill="none" customFrame="#000000">
	<defs>
		<g id="pixso_custom_effect_0">
			<effect visibility="visible" effectType="backgroundBlur" saturation="0" stdDeviation="4" />
		</g>
		<filter id="filter_0" width="294.888214" height="396.930603" x="56.899162" y="6.044342" filterUnits="userSpaceOnUse" customEffect="url(#pixso_custom_effect_0)" color-interpolation-filters="sRGB">
			<feFlood flood-opacity="0" result="BackgroundImageFix" />
			<feGaussianBlur stdDeviation="1.33333337" in="BackgroundImage" />
			<feComposite result="effect_backgroundBlur_1" in2="SourceAlpha" operator="in" />
			<feBlend result="shape" in="SourceGraphic" in2="effect_backgroundBlur_1" mode="normal" />
		</filter>
		<linearGradient id="paint_linear_0" x1="204.343201" x2="204.343201" y1="11.044342" y2="397.974426" gradientUnits="userSpaceOnUse">
			<stop stop-color="rgb(112,238,238)" offset="0.24037756" stop-opacity="1" />
			<stop stop-color="rgb(106,200,102)" offset="1" stop-opacity="1" />
		</linearGradient>
		<radialGradient id="paint_radial_0" cx="0" cy="0" r="1" gradientUnits="userSpaceOnUse" gradientTransform="matrix(0,193.465,-142.444,0,204.343,204.509)">
			<stop stop-color="rgb(6,255,220)" offset="0.41772151" stop-opacity="1" />
			<stop stop-color="rgb(114,255,180)" offset="0.810126603" stop-opacity="0" />
		</radialGradient>
		<radialGradient id="paint_radial_1" cx="0" cy="0" r="1" gradientUnits="userSpaceOnUse" gradientTransform="matrix(0,194.164,-158,0,196,194.164)">
			<stop stop-color="rgb(0,168,255)" offset="0.329113901" stop-opacity="1" />
			<stop stop-color="rgb(0,168,255)" offset="0.827004194" stop-opacity="0" />
		</radialGradient>
	</defs>
	<rect id="minelibs" width="400.000000" height="400.000000" x="0.000000" y="2.000000" fill="rgb(255,255,255)" fill-opacity="0" />
	<g filter="url(#filter_0)">
		<path id="minelibs" d="M178.758 11.4159L73.6087 35.0582C66.7631 36.5973 61.8992 42.6763 61.8992 49.6928L61.8992 142.837C61.8992 149.509 66.3065 155.379 72.7138 157.241L177.863 187.794C187.46 190.583 197.049 183.383 197.049 173.39L197.049 26.0506C197.049 16.439 188.136 9.30745 178.758 11.4159ZM329.32 223.029L215.331 197.468C205.955 195.366 197.049 202.497 197.049 212.105L197.049 327.319C197.049 333.156 200.435 338.463 205.728 340.923L325.466 396.558C335.643 401.286 347.219 393.575 346.775 382.361L341.026 237.072C340.757 230.279 335.953 224.516 329.32 223.029Z" fill="url(#paint_linear_0)" fill-rule="evenodd" />
		<path id="minelibs" d="M179.855 16.2941L74.7055 39.9364C73.5788 40.1897 72.5306 40.6226 71.561 41.2349C70.6155 41.8321 69.7922 42.5689 69.0909 43.4453C68.3897 44.3217 67.8515 45.2866 67.4763 46.3401C67.0915 47.4204 66.8992 48.5379 66.8992 49.6928L66.8992 142.837C66.8992 143.936 67.0742 145.003 67.4244 146.039C67.7665 147.05 68.2591 147.984 68.9022 148.841C69.5453 149.697 70.3048 150.431 71.1808 151.042C72.0772 151.667 73.0533 152.133 74.1089 152.44L179.258 182.993C180.825 183.448 182.389 183.523 183.952 183.218C184.693 183.073 185.412 182.845 186.108 182.533C186.797 182.225 187.446 181.842 188.053 181.387C188.66 180.931 189.207 180.415 189.696 179.839C190.19 179.258 190.609 178.631 190.955 177.959C191.684 176.544 192.049 175.021 192.049 173.39L192.049 26.0506C192.049 24.4802 191.708 23.0059 191.027 21.6278C190.703 20.9715 190.309 20.3566 189.845 19.7832C189.386 19.2145 188.869 18.7009 188.296 18.2423C187.723 17.7838 187.109 17.3927 186.453 17.069C185.792 16.7426 185.106 16.4932 184.394 16.3207C182.9 15.9585 181.387 15.9496 179.855 16.2941L179.855 16.2941ZM177.661 6.53771C179.193 6.19322 180.736 6.02913 182.289 6.04544C183.797 6.06129 185.284 6.24687 186.75 6.60219C188.18 6.94872 189.556 7.44869 190.88 8.1021C192.184 8.74613 193.406 9.52347 194.544 10.4341C195.682 11.3448 196.708 12.3658 197.623 13.4973C198.55 14.6453 199.34 15.8786 199.992 17.1972C200.66 18.5493 201.167 19.9594 201.514 21.4276C201.87 22.9392 202.049 24.4801 202.049 26.0506L202.049 173.39C202.049 175.02 201.857 176.617 201.474 178.181C201.103 179.698 200.56 181.15 199.846 182.538C199.15 183.889 198.308 185.146 197.321 186.31C196.349 187.455 195.261 188.48 194.057 189.384C192.853 190.288 191.565 191.047 190.194 191.66C188.801 192.284 187.359 192.741 185.868 193.033C184.335 193.332 182.789 193.448 181.229 193.381C179.621 193.312 178.034 193.05 176.468 192.595L71.3186 162.042C69.2097 161.43 67.2572 160.497 65.461 159.245C63.7086 158.023 62.19 156.556 60.9052 154.845C59.6205 153.134 58.6359 151.266 57.9515 149.242C57.2499 147.168 56.8992 145.033 56.8992 142.837L56.8992 49.6928C56.8992 47.3862 57.2848 45.1502 58.0559 42.985C58.8066 40.8771 59.8822 38.9481 61.2827 37.1977C62.6832 35.4474 64.3293 33.9748 66.2211 32.78C68.1645 31.5526 70.2614 30.6859 72.5118 30.1799L177.661 6.53771L177.661 6.53771ZM328.226 227.907L214.237 202.347C212.705 202.004 211.192 202.013 209.699 202.376C208.988 202.549 208.302 202.798 207.641 203.125C206.986 203.449 206.372 203.84 205.799 204.298C205.226 204.757 204.71 205.27 204.251 205.839C203.787 206.412 203.394 207.027 203.07 207.683C202.389 209.061 202.049 210.535 202.049 212.105L202.049 327.319C202.049 328.283 202.184 329.226 202.456 330.147C202.723 331.051 203.11 331.902 203.618 332.698C204.126 333.494 204.734 334.204 205.442 334.827C206.163 335.462 206.961 335.982 207.835 336.388L327.573 392.023C328.415 392.415 329.278 392.686 330.162 392.836C331 392.979 331.843 393.011 332.689 392.933C333.514 392.856 334.322 392.676 335.112 392.393C335.895 392.113 336.635 391.741 337.331 391.277C338.028 390.813 338.656 390.273 339.216 389.659C339.782 389.039 340.259 388.363 340.648 387.63C341.046 386.88 341.341 386.09 341.532 385.261C341.733 384.388 341.815 383.487 341.779 382.559L336.03 237.27C335.986 236.151 335.762 235.073 335.358 234.036C334.963 233.024 334.417 232.099 333.719 231.262C333.021 230.425 332.21 229.721 331.285 229.151C330.338 228.567 329.318 228.152 328.226 227.907ZM330.414 218.15C332.596 218.639 334.636 219.469 336.534 220.639C338.384 221.78 340.006 223.187 341.4 224.859C342.794 226.532 343.886 228.38 344.675 230.406C345.485 232.483 345.934 234.639 346.022 236.874L351.771 382.164C351.843 383.984 351.678 385.765 351.276 387.508C350.888 389.191 350.289 390.795 349.48 392.32C348.696 393.796 347.738 395.155 346.606 396.397C345.495 397.615 344.252 398.682 342.875 399.599C341.499 400.516 340.035 401.252 338.483 401.808C336.901 402.375 335.278 402.735 333.614 402.89C331.895 403.05 330.184 402.984 328.482 402.694C326.719 402.394 325.011 401.86 323.359 401.092L203.621 345.457C201.874 344.645 200.279 343.604 198.835 342.333C197.419 341.087 196.204 339.668 195.188 338.077C194.173 336.485 193.398 334.785 192.865 332.976C192.321 331.131 192.049 329.246 192.049 327.319L192.049 212.105C192.049 210.535 192.227 208.994 192.583 207.483C192.929 206.016 193.436 204.606 194.104 203.254C194.755 201.936 195.544 200.703 196.472 199.555C197.386 198.424 198.411 197.403 199.549 196.492C200.687 195.581 201.907 194.804 203.211 194.159C204.534 193.506 205.91 193.005 207.339 192.658C208.804 192.303 210.29 192.116 211.798 192.1C213.351 192.083 214.893 192.246 216.425 192.589L330.414 218.15Z" fill="url(#paint_radial_0)" fill-rule="nonzero" />
	</g>
	<path id="minelibs" d="M249.72 0L314 0C336.091 0 354 17.9086 354 40L354 165.754C354 191.128 330.678 210.09 305.837 204.912L241.557 191.513C223.011 187.647 209.72 171.3 209.72 152.355L209.72 40C209.72 17.9086 227.629 0 249.72 0ZM314 9L249.72 9C248.061 9 246.423 9.12866 244.805 9.386C244.356 9.4574 243.909 9.53872 243.463 9.62994C242.455 9.83614 241.463 10.0914 240.486 10.3958C239.528 10.6942 238.585 11.0397 237.656 11.4324C236.913 11.7467 236.185 12.0889 235.471 12.4591L235.465 12.462C234.41 13.0098 233.386 13.6188 232.394 14.289C231.653 14.7894 230.936 15.3196 230.244 15.8796C229.393 16.568 228.578 17.3013 227.8 18.0797C227.022 18.8577 226.289 19.6721 225.6 20.5229L225.6 20.5233L225.598 20.5258C225.039 21.2178 224.509 21.9338 224.009 22.6739C223.339 23.6661 222.729 24.6901 222.182 25.7458L222.181 25.7464C221.81 26.4618 221.467 27.1917 221.152 27.9362C220.76 28.8641 220.414 29.8068 220.116 30.7642L220.116 30.7656C219.811 31.7427 219.556 32.7352 219.35 33.7429C219.259 34.189 219.177 34.6368 219.106 35.0861C218.848 36.7036 218.72 38.3416 218.72 40L218.72 152.355C218.72 153.668 218.802 154.97 218.965 156.262L218.965 156.266C219.028 156.764 219.103 157.261 219.191 157.756C219.345 158.633 219.537 159.5 219.766 160.358L219.767 160.361C219.993 161.207 220.254 162.042 220.552 162.868C220.806 163.571 221.084 164.263 221.387 164.943C221.792 165.854 222.241 166.745 222.735 167.616C223.13 168.315 223.552 168.997 223.999 169.661L224 169.662C224.521 170.435 225.076 171.185 225.667 171.911C226.256 172.636 226.875 173.331 227.524 173.997L227.525 173.998C228.085 174.573 228.668 175.126 229.273 175.658C230.025 176.318 230.805 176.94 231.613 177.522C232.218 177.957 232.839 178.371 233.476 178.763C234.226 179.225 234.994 179.653 235.778 180.048L235.78 180.049C236.57 180.446 237.378 180.81 238.202 181.139C238.672 181.327 239.147 181.503 239.625 181.667L239.627 181.668L239.629 181.669C240.857 182.091 242.112 182.435 243.394 182.702L307.674 196.102C309.692 196.522 311.711 196.744 313.734 196.767C314.096 196.771 314.459 196.768 314.822 196.76C315.993 196.732 317.155 196.637 318.307 196.476L318.311 196.476C319.423 196.321 320.527 196.104 321.622 195.825C322.439 195.617 323.244 195.376 324.038 195.103L324.043 195.101L324.045 195.101C325.372 194.644 326.668 194.096 327.931 193.457C328.8 193.018 329.645 192.54 330.465 192.024L330.468 192.022C331.539 191.349 332.568 190.611 333.556 189.807C334.547 189.002 335.481 188.143 336.36 187.23C337.032 186.533 337.671 185.805 338.277 185.045C339.159 183.94 339.959 182.785 340.676 181.581L340.678 181.579L340.68 181.575C341.111 180.851 341.512 180.11 341.883 179.352C342.38 178.336 342.818 177.298 343.197 176.24L343.198 176.238L343.198 176.236C343.59 175.142 343.919 174.026 344.185 172.886C344.268 172.535 344.344 172.182 344.413 171.828C344.804 169.842 345 167.817 345 165.754L345 40C345 38.3413 344.871 36.7031 344.614 35.0853C344.543 34.6363 344.461 34.1888 344.37 33.7429C344.164 32.7374 343.91 31.7471 343.606 30.7721L343.606 30.7713C343.307 29.8115 342.961 28.8665 342.568 27.9362C342.253 27.1922 341.91 26.4629 341.539 25.7481L341.537 25.7431C340.989 24.6883 340.381 23.6652 339.711 22.6739C339.21 21.9328 338.68 21.2159 338.12 20.523L338.117 20.5197L338.114 20.5163C337.428 19.6679 336.696 18.8557 335.92 18.0797C335.143 17.302 334.329 16.5692 333.478 15.8814L333.477 15.8806C332.784 15.3202 332.067 14.7897 331.326 14.289C330.335 13.6191 329.311 13.0104 328.256 12.4629L328.255 12.4621C327.539 12.0907 326.809 11.7475 326.064 11.4324C325.136 11.0399 324.193 10.6945 323.235 10.3962L323.228 10.3938C322.253 10.0903 321.263 9.83571 320.257 9.62995C319.821 9.54063 319.383 9.4608 318.943 9.39048L318.914 9.38588C317.297 9.12863 315.659 9 314 9ZM142.28 388.329L78 388.329C55.9086 388.329 38 370.42 38 348.329L38 216.751C38 190.422 62.9977 171.275 88.4181 178.132L152.698 195.472C170.153 200.181 182.28 216.013 182.28 234.092L182.28 348.329C182.28 370.42 164.371 388.329 142.28 388.329ZM78 379.329L142.28 379.329C143.939 379.329 145.577 379.2 147.195 378.943C147.644 378.871 148.091 378.79 148.537 378.699C149.545 378.493 150.537 378.237 151.514 377.933L151.518 377.932C152.474 377.634 153.416 377.289 154.344 376.896C155.089 376.581 155.819 376.238 156.535 375.867L156.537 375.866C157.592 375.318 158.615 374.71 159.606 374.04C160.347 373.539 161.064 373.009 161.756 372.449L161.757 372.448C162.608 371.76 163.422 371.027 164.2 370.249C164.979 369.471 165.712 368.656 166.4 367.805L166.404 367.8C166.963 367.109 167.492 366.394 167.991 365.655C168.661 364.663 169.271 363.639 169.818 362.583L169.823 362.574C170.193 361.861 170.534 361.134 170.848 360.393C171.24 359.466 171.584 358.525 171.882 357.569L171.884 357.565C172.188 356.587 172.444 355.594 172.65 354.586C172.74 354.149 172.82 353.71 172.89 353.269L172.894 353.243C173.152 351.625 173.28 349.987 173.28 348.329L173.28 234.092C173.28 232.192 173.111 230.323 172.774 228.485L172.774 228.484C172.497 226.975 172.106 225.486 171.602 224.019C171.366 223.335 171.108 222.661 170.827 221.997C170.456 221.124 170.046 220.268 169.595 219.429C169.226 218.743 168.832 218.072 168.414 217.417C167.938 216.671 167.43 215.946 166.89 215.241C166.35 214.536 165.782 213.857 165.186 213.203L165.182 213.198C164.66 212.625 164.116 212.072 163.551 211.539C162.861 210.887 162.144 210.27 161.401 209.687C160.83 209.24 160.244 208.813 159.642 208.406C158.357 207.536 157.021 206.771 155.636 206.111L155.635 206.11C153.949 205.306 152.188 204.657 150.354 204.162L86.074 186.821C83.961 186.251 81.835 185.904 79.6962 185.781C79.3706 185.762 79.0447 185.748 78.7186 185.74C77.5093 185.708 76.3066 185.748 75.1106 185.859L75.1097 185.859C73.9552 185.966 72.8069 186.139 71.6647 186.379C70.8296 186.554 70.0046 186.763 69.1898 187.007C67.7859 187.426 66.4121 187.945 65.0685 188.566C64.1703 188.981 63.2956 189.436 62.4444 189.932L62.4416 189.933C61.302 190.597 60.2045 191.333 59.1492 192.142C58.0941 192.95 57.0978 193.817 56.1604 194.745L56.1589 194.746C55.4582 195.439 54.7904 196.166 54.1554 196.925C53.2059 198.061 52.3459 199.253 51.5755 200.499L51.5752 200.5C51.1286 201.223 50.7121 201.964 50.3257 202.724C49.7979 203.762 49.3322 204.824 48.9288 205.908L48.928 205.91L48.9278 205.91C48.5084 207.038 48.1562 208.191 47.8713 209.368C47.7945 209.686 47.7228 210.004 47.6561 210.324C47.2187 212.421 47 214.563 47 216.751L47 348.329C47 349.987 47.1286 351.626 47.3859 353.243C47.4574 353.693 47.5387 354.14 47.6299 354.586C47.8357 355.591 48.0903 356.582 48.3938 357.557C48.6926 358.517 49.0389 359.462 49.4324 360.393C49.7476 361.138 50.091 361.868 50.4625 362.584L50.4632 362.586L50.4658 362.591C51.0125 363.644 51.6203 364.665 52.289 365.655C52.7904 366.397 53.3218 367.115 53.8831 367.809C54.5704 368.659 55.3026 369.472 56.0797 370.249C56.8574 371.027 57.6715 371.76 58.5219 372.447C59.215 373.008 59.9324 373.539 60.6739 374.04C61.6651 374.709 62.6881 375.318 63.7428 375.865L63.7453 375.867C64.461 376.238 65.1913 376.581 65.9362 376.896C66.8643 377.289 67.8071 377.634 68.7645 377.933L68.7655 377.933C69.7427 378.237 70.7351 378.493 71.7429 378.699C72.1889 378.79 72.6365 378.871 73.0857 378.943L73.0864 378.943C74.7038 379.2 76.3417 379.329 78 379.329Z" fill="url(#paint_radial_1)" fill-rule="evenodd" />
</svg>
