<svg viewBox="0 0 78 15" xmlns="http://www.w3.org/2000/svg" xmlns:xlink="http://www.w3.org/1999/xlink" width="78.000000" height="15.000000" fill="none" customFrame="#000000">
	<defs>
		<linearGradient id="paint_linear_2" x1="-3.12924385e-06" x2="76.6737061" y1="12.9545441" y2="9.23150826" gradientUnits="userSpaceOnUse">
			<stop stop-color="rgb(252,173,50)" offset="0" stop-opacity="1" />
			<stop stop-color="rgb(250.886,167.432,47.7727)" offset="0.221798584" stop-opacity="1" />
			<stop stop-color="rgb(249.874,162.368,45.7474)" offset="0.283097625" stop-opacity="1" />
			<stop stop-color="rgb(249.75,161.75,45.5)" offset="0.332584918" stop-opacity="1" />
			<stop stop-color="rgb(247.5,150.5,41)" offset="0.398915708" stop-opacity="1" />
			<stop stop-color="rgb(245.807,142.034,37.6135)" offset="0.433699071" stop-opacity="1" />
			<stop stop-color="rgb(243,128,32)" offset="1" stop-opacity="1" />
		</linearGradient>
		<linearGradient id="paint_linear_3" x1="39" x2="39" y1="0" y2="15" gradientUnits="userSpaceOnUse">
			<stop stop-color="rgb(222,101,0)" offset="0" stop-opacity="1" />
			<stop stop-color="rgb(183,112,0)" offset="1" stop-opacity="1" />
		</linearGradient>
		<clipPath id="clipPath_0">
			<rect width="43.000000" height="15.000000" x="5.000000" y="0.000000" fill="rgb(255,255,255)" />
		</clipPath>
	</defs>
	<rect id="CLOUDFLARE CDN" width="78.000000" height="15.000000" x="0.000000" y="0.000000" fill="rgb(255,255,255)" fill-opacity="0" />
	<rect id="blackground" width="78.000000" height="15.000000" x="0.000000" y="0.000000" rx="3.000000" fill="url(#paint_linear_2)" />
	<rect id="blackground" width="77.000000" height="14.000000" x="0.500000" y="0.500000" rx="2.500000" stroke="url(#paint_linear_3)" stroke-opacity="0" stroke-width="1.000000" />
	<g id="icon" clip-path="url(#clipPath_0)" customFrame="url(#clipPath_0)">
		<rect id="icon" width="43.000000" height="15.000000" x="5.000000" y="0.000000" />
		<path id="icon-2" d="M34.55 15.2727C34.7918 14.3273 34.6933 13.4855 34.2615 12.84C33.8763 12.2436 33.2008 11.8964 32.3803 11.8964L16.859 11.6982C16.809 11.6991 16.7597 11.6855 16.7169 11.6591C16.6741 11.6327 16.6395 11.5946 16.6172 11.5491C16.5688 11.4509 16.5688 11.3509 16.5688 11.2527C16.6172 11.1036 16.7623 10.9546 16.9074 10.9546L32.5738 10.7546C34.455 10.6564 36.4312 9.11819 37.1533 7.23273L38.0688 4.85092C38.1172 4.75092 38.1172 4.65092 38.1172 4.55274C37.1067 -0.163632 33.0575 -3.63636 28.1878 -3.63636C23.7032 -3.63636 19.8959 -0.658177 18.5468 3.46C18.0929 3.10241 17.5739 2.83943 17.0195 2.68622C16.4651 2.53301 15.8863 2.49259 15.3164 2.56728C13.1485 2.76546 11.459 4.55273 11.2189 6.78546C11.1705 7.38182 11.2189 7.92728 11.3156 8.42182C7.795 8.52364 5 11.5018 5 15.1255C5 15.4709 5.04838 15.7709 5.04838 16.1164C5.04838 16.2655 5.19171 16.3655 5.33683 16.3655L33.973 16.3655C34.1164 16.3655 34.3099 16.2655 34.3583 16.0673L34.55 15.2727Z" fill="rgb(243,128,32)" fill-rule="nonzero" />
		<path id="icon-1" d="M39.4681 5L39.0345 5C38.9378 5 38.841 5.09818 38.7926 5.19818L38.1655 7.38C37.9255 8.32545 38.0222 9.16727 38.4558 9.81273C38.841 10.4091 39.5165 10.7545 40.337 10.7545L43.6606 10.9545C43.7573 10.9545 43.8541 11.0036 43.9025 11.1036C43.9508 11.2018 43.9508 11.3018 43.9508 11.4C43.9025 11.5491 43.7573 11.6982 43.614 11.6982L40.1919 11.8982C38.3107 11.9964 36.3345 13.5345 35.6106 15.42L35.3705 16.0655C35.3222 16.1655 35.4171 16.3145 35.5623 16.3145L47.3729 16.3145C47.5181 16.3145 47.6632 16.2145 47.6632 16.0655C47.8549 15.32 48 14.5273 48 13.6836C47.9516 8.92 44.1426 4.99818 39.4681 4.99818" fill="rgb(252,173,50)" fill-rule="nonzero" />
	</g>
	<path id="" d="M12.2988 8.24512L13.4619 8.59668Q13.3447 9.08594 13.0928 9.41406Q12.8408 9.74219 12.4673 9.90918Q12.0938 10.0762 11.5166 10.0762Q10.8164 10.0762 10.3726 9.87256Q9.92871 9.66895 9.60645 9.15625Q9.28418 8.64355 9.28418 7.84375Q9.28418 6.77734 9.85107 6.20459Q10.418 5.63184 11.4551 5.63184Q12.2666 5.63184 12.731 5.95996Q13.1953 6.28809 13.4209 6.96777L12.249 7.22852Q12.1875 7.03223 12.1201 6.94141Q12.0088 6.78906 11.8477 6.70703Q11.6865 6.625 11.4873 6.625Q11.0361 6.625 10.7959 6.98828Q10.6143 7.25781 10.6143 7.83496Q10.6143 8.5498 10.8311 8.81494Q11.0479 9.08008 11.4404 9.08008Q11.8213 9.08008 12.0161 8.86621Q12.2109 8.65234 12.2988 8.24512ZM14.1064 5.70508L15.4336 5.70508L15.4336 8.94238L17.5049 8.94238L17.5049 10L14.1064 10L14.1064 5.70508ZM17.8389 7.85547Q17.8389 6.80371 18.4248 6.21777Q19.0107 5.63184 20.0566 5.63184Q21.1289 5.63184 21.709 6.20752Q22.2891 6.7832 22.2891 7.82031Q22.2891 8.57324 22.0356 9.05518Q21.7822 9.53711 21.3032 9.80518Q20.8242 10.0732 20.1094 10.0732Q19.3828 10.0732 18.9067 9.8418Q18.4307 9.61035 18.1348 9.10938Q17.8389 8.6084 17.8389 7.85547ZM19.166 7.86133Q19.166 8.51172 19.4077 8.7959Q19.6494 9.08008 20.0654 9.08008Q20.4932 9.08008 20.7275 8.80176Q20.9619 8.52344 20.9619 7.80273Q20.9619 7.19629 20.7173 6.9165Q20.4727 6.63672 20.0537 6.63672Q19.6523 6.63672 19.4092 6.9209Q19.166 7.20508 19.166 7.86133ZM25.7988 5.70508L27.123 5.70508L27.123 8.26562Q27.123 8.64648 27.0044 8.98486Q26.8857 9.32324 26.6323 9.57666Q26.3789 9.83008 26.1006 9.93262Q25.7139 10.0762 25.1719 10.0762Q24.8584 10.0762 24.4878 10.0322Q24.1172 9.98828 23.8682 9.85791Q23.6191 9.72754 23.4126 9.4873Q23.2061 9.24707 23.1299 8.99219Q23.0068 8.58203 23.0068 8.26562L23.0068 5.70508L24.3311 5.70508L24.3311 8.32715Q24.3311 8.67871 24.5259 8.87646Q24.7207 9.07422 25.0664 9.07422Q25.4092 9.07422 25.604 8.87939Q25.7988 8.68457 25.7988 8.32715L25.7988 5.70508ZM28.0195 5.70508L29.9912 5.70508Q30.5742 5.70508 30.9331 5.86328Q31.292 6.02148 31.5264 6.31738Q31.7607 6.61328 31.8662 7.00586Q31.9717 7.39844 31.9717 7.83789Q31.9717 8.52637 31.8149 8.90576Q31.6582 9.28516 31.3799 9.5415Q31.1016 9.79785 30.7822 9.88281Q30.3457 10 29.9912 10L28.0195 10L28.0195 5.70508ZM29.3467 6.67773L29.3467 9.02441L29.6719 9.02441Q30.0879 9.02441 30.2637 8.93213Q30.4395 8.83984 30.5391 8.60986Q30.6387 8.37988 30.6387 7.86426Q30.6387 7.18164 30.416 6.92969Q30.1934 6.67773 29.6777 6.67773L29.3467 6.67773ZM32.6748 5.70508L35.9561 5.70508L35.9561 6.62793L34.0078 6.62793L34.0078 7.37793L35.6719 7.37793L35.6719 8.24512L34.0078 8.24512L34.0078 10L32.6748 10L32.6748 5.70508ZM36.6709 5.70508L37.998 5.70508L37.998 8.94238L40.0693 8.94238L40.0693 10L36.6709 10L36.6709 5.70508ZM43.3154 9.29102L41.8037 9.29102L41.5957 10L40.2393 10L41.8535 5.70508L43.3008 5.70508L44.915 10L43.5264 10L43.3154 9.29102ZM43.0371 8.3623L42.5625 6.81836L42.0908 8.3623L43.0371 8.3623ZM45.3574 10L45.3574 5.70508L47.5693 5.70508Q48.1846 5.70508 48.5098 5.81055Q48.835 5.91602 49.0342 6.20166Q49.2334 6.4873 49.2334 6.89746Q49.2334 7.25488 49.0811 7.51416Q48.9287 7.77344 48.6621 7.93457Q48.4922 8.03711 48.1963 8.10449Q48.4336 8.18359 48.542 8.2627Q48.6152 8.31543 48.7544 8.48828Q48.8936 8.66113 48.9404 8.75488L49.582 10L48.082 10L47.373 8.6875Q47.2383 8.43262 47.1328 8.35645Q46.9893 8.25684 46.8076 8.25684L46.6904 8.25684L46.6904 10L45.3574 10ZM46.6904 7.44531L47.25 7.44531Q47.3408 7.44531 47.6016 7.38672Q47.7334 7.36035 47.8169 7.25195Q47.9004 7.14355 47.9004 7.00293Q47.9004 6.79492 47.7686 6.68359Q47.6367 6.57227 47.2734 6.57227L46.6904 6.57227L46.6904 7.44531ZM50.0039 5.70508L53.5605 5.70508L53.5605 6.62207L51.334 6.62207L51.334 7.30469L53.3994 7.30469L53.3994 8.18066L51.334 8.18066L51.334 9.02734L53.625 9.02734L53.625 10L50.0039 10L50.0039 5.70508ZM59.2002 8.24512L60.3633 8.59668Q60.2461 9.08594 59.9941 9.41406Q59.7422 9.74219 59.3687 9.90918Q58.9951 10.0762 58.418 10.0762Q57.7178 10.0762 57.2739 9.87256Q56.8301 9.66895 56.5078 9.15625Q56.1855 8.64355 56.1855 7.84375Q56.1855 6.77734 56.7524 6.20459Q57.3193 5.63184 58.3564 5.63184Q59.168 5.63184 59.6323 5.95996Q60.0967 6.28809 60.3223 6.96777L59.1504 7.22852Q59.0889 7.03223 59.0215 6.94141Q58.9102 6.78906 58.749 6.70703Q58.5879 6.625 58.3887 6.625Q57.9375 6.625 57.6973 6.98828Q57.5156 7.25781 57.5156 7.83496Q57.5156 8.5498 57.7324 8.81494Q57.9492 9.08008 58.3418 9.08008Q58.7227 9.08008 58.9175 8.86621Q59.1123 8.65234 59.2002 8.24512ZM61.0254 5.70508L62.9971 5.70508Q63.5801 5.70508 63.939 5.86328Q64.2979 6.02148 64.5322 6.31738Q64.7666 6.61328 64.8721 7.00586Q64.9775 7.39844 64.9775 7.83789Q64.9775 8.52637 64.8208 8.90576Q64.6641 9.28516 64.3857 9.5415Q64.1074 9.79785 63.7881 9.88281Q63.3516 10 62.9971 10L61.0254 10L61.0254 5.70508ZM62.3525 6.67773L62.3525 9.02441L62.6777 9.02441Q63.0938 9.02441 63.2695 8.93213Q63.4453 8.83984 63.5449 8.60986Q63.6445 8.37988 63.6445 7.86426Q63.6445 7.18164 63.4219 6.92969Q63.1992 6.67773 62.6836 6.67773L62.3525 6.67773ZM65.6836 5.70508L66.9229 5.70508L68.54 8.08105L68.54 5.70508L69.791 5.70508L69.791 10L68.54 10L66.9316 7.6416L66.9316 10L65.6836 10L65.6836 5.70508Z" fill="rgb(255,255,255)" fill-rule="nonzero" />
</svg>
