<svg viewBox="0 0 78 15" xmlns="http://www.w3.org/2000/svg" xmlns:xlink="http://www.w3.org/1999/xlink" width="78.000000" height="15.000000" fill="none" customFrame="#000000">
	<defs>
		<linearGradient id="paint_linear_0" x1="-3.08454037e-06" x2="77.859993" y1="12.954545" y2="14.6048689" gradientUnits="userSpaceOnUse">
			<stop stop-color="rgb(170,181,165)" offset="0" stop-opacity="1" />
			<stop stop-color="rgb(151.982,168.735,150.998)" offset="0.121278517" stop-opacity="1" />
			<stop stop-color="rgb(140.82,161.136,142.324)" offset="0.264749348" stop-opacity="1" />
			<stop stop-color="rgb(106.858,138.018,115.931)" offset="0.433891296" stop-opacity="1" />
			<stop stop-color="rgb(52.3813,100.934,73.5975)" offset="0.734156191" stop-opacity="1" />
			<stop stop-color="rgb(4,68,36)" offset="1" stop-opacity="1" />
		</linearGradient>
		<linearGradient id="paint_linear_1" x1="39" x2="39" y1="0" y2="15" gradientUnits="userSpaceOnUse">
			<stop stop-color="rgb(222,101,0)" offset="0" stop-opacity="1" />
			<stop stop-color="rgb(183,112,0)" offset="1" stop-opacity="1" />
		</linearGradient>
	</defs>
	<rect id="DIRECT DOWNLOAD" width="78.000000" height="15.000000" x="0.000000" y="0.000000" fill="rgb(255,255,255)" fill-opacity="0" />
	<rect id="blackground" width="78.000000" height="15.000000" x="0.000000" y="0.000000" rx="3.000000" fill="url(#paint_linear_0)" />
	<rect id="blackground" width="77.000000" height="14.000000" x="0.500000" y="0.500000" rx="2.500000" stroke="url(#paint_linear_1)" stroke-opacity="0" stroke-width="1.000000" />
	<path id="" d="M6.45703 5.70508L8.42871 5.70508Q9.01172 5.70508 9.37061 5.86328Q9.72949 6.02148 9.96387 6.31738Q10.1982 6.61328 10.3037 7.00586Q10.4092 7.39844 10.4092 7.83789Q10.4092 8.52637 10.2524 8.90576Q10.0957 9.28516 9.81738 9.5415Q9.53906 9.79785 9.21973 9.88281Q8.7832 10 8.42871 10L6.45703 10L6.45703 5.70508ZM7.78418 6.67773L7.78418 9.02441L8.10938 9.02441Q8.52539 9.02441 8.70117 8.93213Q8.87695 8.83984 8.97656 8.60986Q9.07617 8.37988 9.07617 7.86426Q9.07617 7.18164 8.85352 6.92969Q8.63086 6.67773 8.11523 6.67773L7.78418 6.67773ZM11.1592 5.70508L12.4893 5.70508L12.4893 10L11.1592 10L11.1592 5.70508ZM13.459 10L13.459 5.70508L15.6709 5.70508Q16.2861 5.70508 16.6113 5.81055Q16.9365 5.91602 17.1357 6.20166Q17.335 6.4873 17.335 6.89746Q17.335 7.25488 17.1826 7.51416Q17.0303 7.77344 16.7637 7.93457Q16.5938 8.03711 16.2979 8.10449Q16.5352 8.18359 16.6436 8.2627Q16.7168 8.31543 16.856 8.48828Q16.9951 8.66113 17.042 8.75488L17.6836 10L16.1836 10L15.4746 8.6875Q15.3398 8.43262 15.2344 8.35645Q15.0908 8.25684 14.9092 8.25684L14.792 8.25684L14.792 10L13.459 10ZM14.792 7.44531L15.3516 7.44531Q15.4424 7.44531 15.7031 7.38672Q15.835 7.36035 15.9185 7.25195Q16.002 7.14355 16.002 7.00293Q16.002 6.79492 15.8701 6.68359Q15.7383 6.57227 15.375 6.57227L14.792 6.57227L14.792 7.44531ZM18.1055 5.70508L21.6621 5.70508L21.6621 6.62207L19.4355 6.62207L19.4355 7.30469L21.501 7.30469L21.501 8.18066L19.4355 8.18066L19.4355 9.02734L21.7266 9.02734L21.7266 10L18.1055 10L18.1055 5.70508ZM25.3008 8.24512L26.4639 8.59668Q26.3467 9.08594 26.0947 9.41406Q25.8428 9.74219 25.4692 9.90918Q25.0957 10.0762 24.5186 10.0762Q23.8184 10.0762 23.3745 9.87256Q22.9307 9.66895 22.6084 9.15625Q22.2861 8.64355 22.2861 7.84375Q22.2861 6.77734 22.853 6.20459Q23.4199 5.63184 24.457 5.63184Q25.2686 5.63184 25.7329 5.95996Q26.1973 6.28809 26.4229 6.96777L25.251 7.22852Q25.1895 7.03223 25.1221 6.94141Q25.0107 6.78906 24.8496 6.70703Q24.6885 6.625 24.4893 6.625Q24.0381 6.625 23.7979 6.98828Q23.6162 7.25781 23.6162 7.83496Q23.6162 8.5498 23.833 8.81494Q24.0498 9.08008 24.4424 9.08008Q24.8232 9.08008 25.0181 8.86621Q25.2129 8.65234 25.3008 8.24512ZM26.8066 5.70508L30.8408 5.70508L30.8408 6.76562L29.4873 6.76562L29.4873 10L28.1602 10L28.1602 6.76562L26.8066 6.76562L26.8066 5.70508ZM33.46 5.70508L35.4316 5.70508Q36.0146 5.70508 36.3735 5.86328Q36.7324 6.02148 36.9668 6.31738Q37.2012 6.61328 37.3066 7.00586Q37.4121 7.39844 37.4121 7.83789Q37.4121 8.52637 37.2554 8.90576Q37.0986 9.28516 36.8203 9.5415Q36.542 9.79785 36.2227 9.88281Q35.7861 10 35.4316 10L33.46 10L33.46 5.70508ZM34.7871 6.67773L34.7871 9.02441L35.1123 9.02441Q35.5283 9.02441 35.7041 8.93213Q35.8799 8.83984 35.9795 8.60986Q36.0791 8.37988 36.0791 7.86426Q36.0791 7.18164 35.8564 6.92969Q35.6338 6.67773 35.1182 6.67773L34.7871 6.67773ZM37.9424 7.85547Q37.9424 6.80371 38.5283 6.21777Q39.1143 5.63184 40.1602 5.63184Q41.2324 5.63184 41.8125 6.20752Q42.3926 6.7832 42.3926 7.82031Q42.3926 8.57324 42.1392 9.05518Q41.8857 9.53711 41.4067 9.80518Q40.9277 10.0732 40.2129 10.0732Q39.4863 10.0732 39.0103 9.8418Q38.5342 9.61035 38.2383 9.10938Q37.9424 8.6084 37.9424 7.85547ZM39.2695 7.86133Q39.2695 8.51172 39.5112 8.7959Q39.7529 9.08008 40.1689 9.08008Q40.5967 9.08008 40.8311 8.80176Q41.0654 8.52344 41.0654 7.80273Q41.0654 7.19629 40.8208 6.9165Q40.5762 6.63672 40.1572 6.63672Q39.7559 6.63672 39.5127 6.9209Q39.2695 7.20508 39.2695 7.86133ZM42.5625 5.70508L43.8223 5.70508L44.2764 8.10449L44.9385 5.70508L46.1953 5.70508L46.8604 8.10449L47.3145 5.70508L48.5684 5.70508L47.6221 10L46.3213 10L45.5684 7.2959L44.8184 10L43.5176 10L42.5625 5.70508ZM49.0137 5.70508L50.2529 5.70508L51.8701 8.08105L51.8701 5.70508L53.1211 5.70508L53.1211 10L51.8701 10L50.2617 7.6416L50.2617 10L49.0137 10L49.0137 5.70508ZM54.0029 5.70508L55.3301 5.70508L55.3301 8.94238L57.4014 8.94238L57.4014 10L54.0029 10L54.0029 5.70508ZM57.7354 7.85547Q57.7354 6.80371 58.3213 6.21777Q58.9072 5.63184 59.9531 5.63184Q61.0254 5.63184 61.6055 6.20752Q62.1855 6.7832 62.1855 7.82031Q62.1855 8.57324 61.9321 9.05518Q61.6787 9.53711 61.1997 9.80518Q60.7207 10.0732 60.0059 10.0732Q59.2793 10.0732 58.8032 9.8418Q58.3271 9.61035 58.0312 9.10938Q57.7354 8.6084 57.7354 7.85547ZM59.0625 7.86133Q59.0625 8.51172 59.3042 8.7959Q59.5459 9.08008 59.9619 9.08008Q60.3896 9.08008 60.624 8.80176Q60.8584 8.52344 60.8584 7.80273Q60.8584 7.19629 60.6138 6.9165Q60.3691 6.63672 59.9502 6.63672Q59.5488 6.63672 59.3057 6.9209Q59.0625 7.20508 59.0625 7.86133ZM65.3379 9.29102L63.8262 9.29102L63.6182 10L62.2617 10L63.876 5.70508L65.3232 5.70508L66.9375 10L65.5488 10L65.3379 9.29102ZM65.0596 8.3623L64.585 6.81836L64.1133 8.3623L65.0596 8.3623ZM67.3799 5.70508L69.3516 5.70508Q69.9346 5.70508 70.2935 5.86328Q70.6523 6.02148 70.8867 6.31738Q71.1211 6.61328 71.2266 7.00586Q71.332 7.39844 71.332 7.83789Q71.332 8.52637 71.1753 8.90576Q71.0186 9.28516 70.7402 9.5415Q70.4619 9.79785 70.1426 9.88281Q69.7061 10 69.3516 10L67.3799 10L67.3799 5.70508ZM68.707 6.67773L68.707 9.02441L69.0322 9.02441Q69.4482 9.02441 69.624 8.93213Q69.7998 8.83984 69.8994 8.60986Q69.999 8.37988 69.999 7.86426Q69.999 7.18164 69.7764 6.92969Q69.5537 6.67773 69.0381 6.67773L68.707 6.67773Z" fill="rgb(255,255,255)" fill-rule="nonzero" />
</svg>
