<svg viewBox="0 0 78 15" xmlns="http://www.w3.org/2000/svg" xmlns:xlink="http://www.w3.org/1999/xlink" width="78.000000" height="15.000000" fill="none" customFrame="#000000">
	<defs>
		<linearGradient id="paint_linear_0" x1="40.5234375" x2="42.5097237" y1="15.0000143" y2="-6.49101734" gradientUnits="userSpaceOnUse">
			<stop stop-color="rgb(1,211,254)" offset="0" stop-opacity="1" />
			<stop stop-color="rgb(2.85723,191.584,251.974)" offset="0.113935381" stop-opacity="1" />
			<stop stop-color="rgb(3.96901,179.96,250.761)" offset="0.237743989" stop-opacity="1" />
			<stop stop-color="rgb(6.5,153.5,248)" offset="0.536374748" stop-opacity="1" />
			<stop stop-color="rgb(7.875,139.125,246.5)" offset="0.692905962" stop-opacity="1" />
			<stop stop-color="rgb(9.25,124.75,245)" offset="0.827764332" stop-opacity="1" />
			<stop stop-color="rgb(12,96,242)" offset="1" stop-opacity="1" />
		</linearGradient>
		<linearGradient id="paint_linear_1" x1="39" x2="39" y1="0" y2="15" gradientUnits="userSpaceOnUse">
			<stop stop-color="rgb(222,101,0)" offset="0" stop-opacity="1" />
			<stop stop-color="rgb(183,112,0)" offset="1" stop-opacity="1" />
		</linearGradient>
		<clipPath id="clipPath_0">
			<rect width="36.075001" height="15.000000" x="36.075001" y="0.000000" fill="rgb(255,255,255)" />
		</clipPath>
		<linearGradient id="paint_linear_2" x1="55.0750008" x2="55.0750008" y1="-8" y2="25" gradientUnits="userSpaceOnUse">
			<stop stop-color="rgb(1,211,254)" offset="0.319999993" stop-opacity="1" />
			<stop stop-color="rgb(12,96,242)" offset="1" stop-opacity="1" />
		</linearGradient>
	</defs>
	<rect id="EDGEONE CDN" width="78.000000" height="15.000000" x="0.000000" y="0.000000" fill="rgb(255,255,255)" fill-opacity="0" />
	<rect id="blackground" width="78.000000" height="15.000000" x="0.000000" y="0.000000" rx="3.000000" fill="url(#paint_linear_0)" />
	<rect id="blackground" width="77.000000" height="14.000000" x="0.500000" y="0.500000" rx="2.500000" stroke="url(#paint_linear_1)" stroke-opacity="0" stroke-width="1.000000" />
	<g id="icon" clip-path="url(#clipPath_0)" customFrame="url(#clipPath_0)">
		<rect id="icon" width="36.075001" height="15.000000" x="36.075001" y="0.000000" />
		<path id="edgeone" d="M69.0537 -0.892578C65.9845 -5.18751 60.8682 -8 55.075 -8C45.6862 -8 38.075 -0.612699 38.075 8.5C38.075 12.9911 39.9237 17.0631 42.9227 20.0383L47.4247 3.56664L41.1637 4.71417L42.4471 -0.0093689L54.397 -2.7762L55.0642 -2.73098L48.1869 23.0571L46.8193 22.9272C49.2638 24.2477 52.0789 25 55.075 25C61.0261 25 66.2629 22.0321 69.3001 17.5381L55.868 17.5381L57.0809 10.6826L71.9276 10.6826C72.0248 9.96847 72.075 9.23993 72.075 8.5C72.075 7.63723 72.0068 6.78992 71.8753 5.96289L57.8719 5.96289L59.0848 -0.892578L69.0537 -0.892578Z" fill="url(#paint_linear_2)" fill-rule="evenodd" />
	</g>
	<path id="" d="M15.4365 5.70508L18.9932 5.70508L18.9932 6.62207L16.7666 6.62207L16.7666 7.30469L18.832 7.30469L18.832 8.18066L16.7666 8.18066L16.7666 9.02734L19.0576 9.02734L19.0576 10L15.4365 10L15.4365 5.70508ZM19.79 5.70508L21.7617 5.70508Q22.3447 5.70508 22.7036 5.86328Q23.0625 6.02148 23.2969 6.31738Q23.5312 6.61328 23.6367 7.00586Q23.7422 7.39844 23.7422 7.83789Q23.7422 8.52637 23.5854 8.90576Q23.4287 9.28516 23.1504 9.5415Q22.8721 9.79785 22.5527 9.88281Q22.1162 10 21.7617 10L19.79 10L19.79 5.70508ZM21.1172 6.67773L21.1172 9.02441L21.4424 9.02441Q21.8584 9.02441 22.0342 8.93213Q22.21 8.83984 22.3096 8.60986Q22.4092 8.37988 22.4092 7.86426Q22.4092 7.18164 22.1865 6.92969Q21.9639 6.67773 21.4482 6.67773L21.1172 6.67773ZM26.5986 8.44434L26.5986 7.55078L28.6494 7.55078L28.6494 9.38184Q28.0605 9.7832 27.6079 9.92822Q27.1553 10.0732 26.5342 10.0732Q25.7695 10.0732 25.2876 9.8125Q24.8057 9.55176 24.5405 9.03613Q24.2754 8.52051 24.2754 7.85254Q24.2754 7.14941 24.5654 6.62939Q24.8555 6.10938 25.415 5.83984Q25.8516 5.63184 26.5898 5.63184Q27.3018 5.63184 27.6548 5.76074Q28.0078 5.88965 28.2407 6.16064Q28.4736 6.43164 28.5908 6.84766L27.3105 7.07617Q27.2314 6.83301 27.0425 6.7041Q26.8535 6.5752 26.5605 6.5752Q26.124 6.5752 25.8647 6.87842Q25.6055 7.18164 25.6055 7.83789Q25.6055 8.53516 25.8677 8.83398Q26.1299 9.13281 26.5986 9.13281Q26.8213 9.13281 27.0234 9.06836Q27.2256 9.00391 27.4863 8.84863L27.4863 8.44434L26.5986 8.44434ZM29.4346 5.70508L32.9912 5.70508L32.9912 6.62207L30.7646 6.62207L30.7646 7.30469L32.8301 7.30469L32.8301 8.18066L30.7646 8.18066L30.7646 9.02734L33.0557 9.02734L33.0557 10L29.4346 10L29.4346 5.70508ZM33.6035 7.85547Q33.6035 6.80371 34.1895 6.21777Q34.7754 5.63184 35.8213 5.63184Q36.8936 5.63184 37.4736 6.20752Q38.0537 6.7832 38.0537 7.82031Q38.0537 8.57324 37.8003 9.05518Q37.5469 9.53711 37.0679 9.80518Q36.5889 10.0732 35.874 10.0732Q35.1475 10.0732 34.6714 9.8418Q34.1953 9.61035 33.8994 9.10938Q33.6035 8.6084 33.6035 7.85547ZM34.9307 7.86133Q34.9307 8.51172 35.1724 8.7959Q35.4141 9.08008 35.8301 9.08008Q36.2578 9.08008 36.4922 8.80176Q36.7266 8.52344 36.7266 7.80273Q36.7266 7.19629 36.4819 6.9165Q36.2373 6.63672 35.8184 6.63672Q35.417 6.63672 35.1738 6.9209Q34.9307 7.20508 34.9307 7.86133ZM38.7773 5.70508L40.0166 5.70508L41.6338 8.08105L41.6338 5.70508L42.8848 5.70508L42.8848 10L41.6338 10L40.0254 7.6416L40.0254 10L38.7773 10L38.7773 5.70508ZM43.7637 5.70508L47.3203 5.70508L47.3203 6.62207L45.0938 6.62207L45.0938 7.30469L47.1592 7.30469L47.1592 8.18066L45.0938 8.18066L45.0938 9.02734L47.3848 9.02734L47.3848 10L43.7637 10L43.7637 5.70508ZM52.96 8.24512L54.123 8.59668Q54.0059 9.08594 53.7539 9.41406Q53.502 9.74219 53.1284 9.90918Q52.7549 10.0762 52.1777 10.0762Q51.4775 10.0762 51.0337 9.87256Q50.5898 9.66895 50.2676 9.15625Q49.9453 8.64355 49.9453 7.84375Q49.9453 6.77734 50.5122 6.20459Q51.0791 5.63184 52.1162 5.63184Q52.9277 5.63184 53.3921 5.95996Q53.8564 6.28809 54.082 6.96777L52.9102 7.22852Q52.8486 7.03223 52.7812 6.94141Q52.6699 6.78906 52.5088 6.70703Q52.3477 6.625 52.1484 6.625Q51.6973 6.625 51.457 6.98828Q51.2754 7.25781 51.2754 7.83496Q51.2754 8.5498 51.4922 8.81494Q51.709 9.08008 52.1016 9.08008Q52.4824 9.08008 52.6772 8.86621Q52.8721 8.65234 52.96 8.24512ZM54.7852 5.70508L56.7568 5.70508Q57.3398 5.70508 57.6987 5.86328Q58.0576 6.02148 58.292 6.31738Q58.5264 6.61328 58.6318 7.00586Q58.7373 7.39844 58.7373 7.83789Q58.7373 8.52637 58.5806 8.90576Q58.4238 9.28516 58.1455 9.5415Q57.8672 9.79785 57.5479 9.88281Q57.1113 10 56.7568 10L54.7852 10L54.7852 5.70508ZM56.1123 6.67773L56.1123 9.02441L56.4375 9.02441Q56.8535 9.02441 57.0293 8.93213Q57.2051 8.83984 57.3047 8.60986Q57.4043 8.37988 57.4043 7.86426Q57.4043 7.18164 57.1816 6.92969Q56.959 6.67773 56.4434 6.67773L56.1123 6.67773ZM59.4434 5.70508L60.6826 5.70508L62.2998 8.08105L62.2998 5.70508L63.5508 5.70508L63.5508 10L62.2998 10L60.6914 7.6416L60.6914 10L59.4434 10L59.4434 5.70508Z" fill="rgb(255,255,255)" fill-rule="nonzero" />
</svg>
